HIERARCHY
ROOT Hips
{
    OFFSET 0.000000 0.000000 0.000000
    CHANNELS 6 Xposition Yposition Zposition Zrotation Yrotation Xrotation
    JOINT Chest
    {
        OFFSET 0.000000 1.634758 -0.000000
        CHANNELS 3 Zrotation Yrotation Xrotation
        JOINT Chest2
        {
            OFFSET 0.000000 2.197341 0.000000
            CHANNELS 3 Zrotation Yrotation Xrotation
            JOINT Neck
            {
                OFFSET 0.000000 0.961544 0.000000
                CHANNELS 3 Zrotation Yrotation Xrotation
                JOINT Head
                {
                    OFFSET 0.000000 0.632542 -0.032565
                    CHANNELS 3 Zrotation Yrotation Xrotation
                    End Site
                    {
                        OFFSET -0.000001 0.439502 2.922845
                    }
                }
            }
            JOINT LeftCollar
            {
                OFFSET 0.167536 0.778237 -0.168280
                CHANNELS 3 Zrotation Yrotation Xrotation
                JOINT LeftShoulder
                {
                    OFFSET 0.831514 -0.002900 0.006458
                    CHANNELS 3 Zrotation Yrotation Xrotation
                    JOINT LeftElbow
                    {
                        OFFSET 2.272872 -0.026639 0.059314
                        CHANNELS 3 Zrotation Yrotation Xrotation
                        JOINT LeftWrist
                        {
                            OFFSET 2.081982 -0.024402 0.054333
                            CHANNELS 3 Zrotation Yrotation Xrotation
                            JOINT LeftHandThumb1
                            {
                                OFFSET 0.218903 -0.128645 0.283837
                                CHANNELS 3 Zrotation Yrotation Xrotation
                                JOINT LeftHandThumb2
                                {
                                    OFFSET 0.137157 -0.025101 0.077902
                                    CHANNELS 3 Zrotation Yrotation Xrotation
                                    JOINT LeftHandThumb3
                                    {
                                        OFFSET 0.159372 -0.063394 0.064195
                                        CHANNELS 3 Zrotation Yrotation Xrotation
                                        End Site
                                        {
                                            OFFSET 0.200614 -0.032096 0.174814
                                        }
                                    }
                                }
                            }
                            JOINT LeftHandFore1
                            {
                                OFFSET 0.767340 -0.016076 0.196678
                                CHANNELS 3 Zrotation Yrotation Xrotation
                                JOINT LeftHandFore2
                                {
                                    OFFSET 0.215173 -0.024035 0.010864
                                    CHANNELS 3 Zrotation Yrotation Xrotation
                                    JOINT LeftHandFore3
                                    {
                                        OFFSET 0.129316 0.000782 0.006302
                                        CHANNELS 3 Zrotation Yrotation Xrotation
                                        End Site
                                        {
                                            OFFSET 0.190193 0.034243 0.004553
                                        }
                                    }
                                }
                            }
                            JOINT LeftHandMiddle1
                            {
                                OFFSET 0.709887 -0.008320 0.018526
                                CHANNELS 3 Zrotation Yrotation Xrotation
                                JOINT LeftHandMiddle2
                                {
                                    OFFSET 0.243305 -0.028680 0.006624
                                    CHANNELS 3 Zrotation Yrotation Xrotation
                                    JOINT LeftHandMiddle3
                                    {
                                        OFFSET 0.139757 -0.042789 0.004506
                                        CHANNELS 3 Zrotation Yrotation Xrotation
                                        End Site
                                        {
                                            OFFSET 0.206804 -0.113094 0.008492
                                        }
                                    }
                                }
                            }
                            JOINT LeftHandRing1
                            {
                                OFFSET 0.743817 -0.005823 -0.153668
                                CHANNELS 3 Zrotation Yrotation Xrotation
                                JOINT LeftHandRing2
                                {
                                    OFFSET 0.349394 -0.050632 -0.009675
                                    CHANNELS 3 Zrotation Yrotation Xrotation
                                    JOINT LeftHandRing3
                                    {
                                        OFFSET 0.127797 -0.047654 0.001597
                                        CHANNELS 3 Zrotation Yrotation Xrotation
                                        End Site
                                        {
                                            OFFSET 0.099358 -0.067423 0.001397
                                        }
                                    }
                                }
                            }
                            JOINT LeftHandLittle1
                            {
                                OFFSET 0.689408 -0.053302 -0.308304
                                CHANNELS 3 Zrotation Yrotation Xrotation
                                JOINT LeftHandLittle2
                                {
                                    OFFSET 0.193251 -0.018757 -0.018874
                                    CHANNELS 3 Zrotation Yrotation Xrotation
                                    JOINT LeftHandLittle3
                                    {
                                        OFFSET 0.110314 -0.046661 -0.012242
                                        CHANNELS 3 Zrotation Yrotation Xrotation
                                        End Site
                                        {
                                            OFFSET 0.172822 -0.079132 -0.012628
                                        }
                                    }
                                }
                            }
                        }
                    }
                }
            }
            JOINT RightCollar
            {
                OFFSET -0.167536 0.778237 -0.168280
                CHANNELS 3 Zrotation Yrotation Xrotation
                JOINT RightShoulder
                {
                    OFFSET -0.831514 -0.002900 0.006457
                    CHANNELS 3 Zrotation Yrotation Xrotation
                    JOINT RightElbow
                    {
                        OFFSET -2.272872 -0.026639 0.059313
                        CHANNELS 3 Zrotation Yrotation Xrotation
                        JOINT RightWrist
                        {
                            OFFSET -2.081982 -0.024402 0.054331
                            CHANNELS 3 Zrotation Yrotation Xrotation
                            JOINT RightHandThumb1
                            {
                                OFFSET -0.218911 -0.128571 0.283837
                                CHANNELS 3 Zrotation Yrotation Xrotation
                                JOINT RightHandThumb2
                                {
                                    OFFSET -0.137157 -0.025101 0.077902
                                    CHANNELS 3 Zrotation Yrotation Xrotation
                                    JOINT RightHandThumb3
                                    {
                                        OFFSET -0.155584 -0.095925 0.011460
                                        CHANNELS 3 Zrotation Yrotation Xrotation
                                        End Site
                                        {
                                            OFFSET -0.202110 -0.169271 0.048329
                                        }
                                    }
                                }
                            }
                            JOINT RightHandFore1
                            {
                                OFFSET -0.767344 -0.015991 0.196679
                                CHANNELS 3 Zrotation Yrotation Xrotation
                                JOINT RightHandFore2
                                {
                                    OFFSET -0.215607 -0.021811 -0.005906
                                    CHANNELS 3 Zrotation Yrotation Xrotation
                                    JOINT RightHandFore3
                                    {
                                        OFFSET -0.126174 -0.028882 -0.002830
                                        CHANNELS 3 Zrotation Yrotation Xrotation
                                        End Site
                                        {
                                            OFFSET -0.185109 -0.055689 0.000444
                                        }
                                    }
                                }
                            }
                            JOINT RightHandMiddle1
                            {
                                OFFSET -0.709887 -0.008302 0.018525
                                CHANNELS 3 Zrotation Yrotation Xrotation
                                JOINT RightHandMiddle2
                                {
                                    OFFSET -0.243441 -0.026511 -0.009768
                                    CHANNELS 3 Zrotation Yrotation Xrotation
                                    JOINT RightHandMiddle3
                                    {
                                        OFFSET -0.134609 -0.056908 -0.005128
                                        CHANNELS 3 Zrotation Yrotation Xrotation
                                        End Site
                                        {
                                            OFFSET -0.178164 -0.154413 -0.006657
                                        }
                                    }
                                }
                            }
                            JOINT RightHandRing1
                            {
                                OFFSET -0.743819 -0.005785 -0.153669
                                CHANNELS 3 Zrotation Yrotation Xrotation
                                JOINT RightHandRing2
                                {
                                    OFFSET -0.348869 -0.048841 -0.025259
                                    CHANNELS 3 Zrotation Yrotation Xrotation
                                    JOINT RightHandRing3
                                    {
                                        OFFSET -0.125966 -0.050529 -0.013577
                                        CHANNELS 3 Zrotation Yrotation Xrotation
                                        End Site
                                        {
                                            OFFSET -0.095366 -0.072309 -0.009844
                                        }
                                    }
                                }
                            }
                            JOINT RightHandLittle1
                            {
                                OFFSET -0.689403 -0.053298 -0.308303
                                CHANNELS 3 Zrotation Yrotation Xrotation
                                JOINT RightHandLittle2
                                {
                                    OFFSET -0.191678 -0.017606 -0.031700
                                    CHANNELS 3 Zrotation Yrotation Xrotation
                                    JOINT RightHandLittle3
                                    {
                                        OFFSET -0.113153 -0.037455 -0.017002
                                        CHANNELS 3 Zrotation Yrotation Xrotation
                                        End Site
                                        {
                                            OFFSET -0.180079 -0.051831 -0.034254
                                        }
                                    }
                                }
                            }
                        }
                    }
                }
            }
        }
    }
    JOINT LeftHip
    {
        OFFSET 0.685143 0.673822 -0.044491
        CHANNELS 3 Zrotation Yrotation Xrotation
        JOINT LeftKnee
        {
            OFFSET 0.085364 -3.750208 0.017676
            CHANNELS 3 Zrotation Yrotation Xrotation
            JOINT LeftAnkle
            {
                OFFSET 0.094583 -4.155206 0.019585
                CHANNELS 3 Zrotation Yrotation Xrotation
                JOINT LeftToe
                {
                    OFFSET -0.000000 -0.395925 0.621478
                    CHANNELS 3 Zrotation Yrotation Xrotation
                    End Site
                    {
                        OFFSET -0.000000 -0.077878 0.321152
                    }
                }
            }
        }
    }
    JOINT RightHip
    {
        OFFSET -0.685143 0.673822 -0.044492
        CHANNELS 3 Zrotation Yrotation Xrotation
        JOINT RightKnee
        {
            OFFSET -0.085364 -3.750208 0.017677
            CHANNELS 3 Zrotation Yrotation Xrotation
            JOINT RightAnkle
            {
                OFFSET -0.094583 -4.155206 0.019585
                CHANNELS 3 Zrotation Yrotation Xrotation
                JOINT RightToe
                {
                    OFFSET -0.000000 -0.395925 0.621478
                    CHANNELS 3 Zrotation Yrotation Xrotation
                    End Site
                    {
                        OFFSET -0.000000 -0.077878 0.321152
                    }
                }
            }
        }
    }
}
MOTION
Frames: 4
Frame Time: 0.033333
4.236949 7.096698 -7.364798 174.169861 -16.558350 -172.478195 -9.138394 23.283979 3.266810 -0.897430 -3.468170 -0.371651 25.614649 -13.802197 -0.373811 1.996360 -34.084381 -1.761452 8.471884 1.398180 0.503022 47.736298 -65.743279 -128.549591 177.976288 -60.385670 -178.829773 7.081232 14.647635 -31.493015 0.000016 0.000001 0.000003 -0.061655 -0.008657 -0.040489 -0.000012 0.000054 0.000014 -0.252653 0.807737 0.005579 -4.770000 -0.053378 0.026460 -4.761549 -0.052940 0.318439 -0.523431 11.847147 0.290916 0.541015 -1.280775 8.647782 0.661477 0.017152 -0.014707 -0.912226 11.805640 -0.069614 0.708488 -0.944189 8.755502 0.661285 0.013621 -0.026132 -1.260658 11.325081 0.289628 1.268842 0.024408 9.292816 0.661962 0.005484 -0.011664 0.663416 15.824949 -0.002784 67.218269 49.027714 11.108826 -4.618743 82.738052 -5.251170 -3.815981 -7.986053 -78.269112 0.000011 0.000011 -0.000015 -10.787786 2.168519 -4.303157 -8.857608 4.224107 -5.133150 19.645947 -3.482785 -1.507158 4.277336 0.033478 17.092836 4.366680 0.119694 -0.197924 30.569605 -1.652355 -1.572283 -14.560411 -0.712216 -1.052044 -14.552406 -0.056615 0.594282 27.862745 -2.173464 1.794668 -8.755112 2.210582 9.554804 -9.870420 0.160431 1.392369 13.752093 -16.866169 0.307572 -5.896585 0.520602 9.313209 -8.256861 0.110913 2.363236 4.844845 -5.158820 -51.040134 0.868473 1.229085 70.486900 -14.454927 9.644538 -21.573149 -0.000001 -0.000007 -0.000003 -41.666985 4.665092 -18.835438 -0.319794 -0.855489 40.995083 8.258586 13.284014 5.444733 -0.061575 -8.483465 -13.213464
4.246644 7.090746 -7.381324 174.217087 -17.337299 -172.281021 -9.179166 23.288740 3.173473 -0.738871 -3.488102 -0.502456 25.857834 -13.747856 -0.169166 1.971265 -33.748791 -1.379025 9.339128 1.317720 0.557622 61.454369 -65.056953 -141.359543 177.601105 -67.247612 -178.411957 2.878231 12.150798 -31.460194 -0.000001 -0.000008 0.000003 -0.055214 -0.007780 -0.036272 -0.000010 0.000055 0.000020 -0.252587 0.807662 0.005576 -4.590461 -0.051122 0.018276 -4.582542 -0.051459 0.306397 -0.523495 11.847068 0.290904 0.705557 -1.301382 8.640134 0.827248 0.021466 -0.018360 -0.912174 11.805663 -0.069619 0.872878 -0.968239 8.752138 0.826984 0.017065 -0.032635 -1.260594 11.325001 0.289617 1.431956 -0.004762 9.283063 0.827958 0.006619 -0.014687 -1.571050 16.993376 -0.146134 52.094143 62.795338 0.665456 -1.327943 70.479271 -1.886956 -5.188367 3.227201 -78.729218 -0.000002 0.000019 -0.000020 -10.769749 2.171457 -4.320867 -8.857637 4.224201 -5.133156 19.333015 -3.615893 -1.503977 4.278666 0.034523 16.870743 4.366590 0.119576 -0.197807 30.260143 -1.822355 -1.596659 -14.559966 -0.795358 -1.258419 -14.552514 -0.056729 0.594248 27.567936 -2.327921 1.735551 -8.789770 2.154890 9.330886 -9.870544 0.160331 1.392316 13.752093 -16.866138 0.307598 -5.907630 0.521912 9.316900 -8.268929 0.111467 2.366632 4.971766 -5.188843 -51.310043 0.871786 1.230253 70.641235 -14.365063 8.930859 -21.570086 -0.000002 -0.000009 -0.000004 -41.646664 4.580638 -16.596933 -0.270311 -0.794984 37.560158 7.904434 12.975284 3.828184 0.036326 -8.672774 -13.871726
4.252814 7.084719 -7.402501 174.211197 -17.611481 -172.211243 -9.285294 23.270168 3.116191 -0.650593 -3.495713 -0.591966 25.774218 -13.462876 -0.028030 1.930055 -33.192192 -1.114679 9.736177 0.986576 0.581617 67.315651 -65.837120 -147.006210 177.255890 -71.197273 -178.042648 1.462249 10.599495 -31.641289 0.000008 -0.000011 0.000004 -0.048771 -0.006907 -0.032061 -0.000008 0.000058 0.000019 -0.252511 0.807600 0.005578 -4.420530 -0.048969 0.010531 -4.412951 -0.049991 0.294991 -0.523545 11.846998 0.290897 0.861289 -1.320596 8.632860 0.984509 0.025574 -0.021822 -0.912119 11.805694 -0.069622 1.027963 -0.990658 8.749054 0.983934 0.020361 -0.038802 -1.260528 11.324933 0.289615 1.586043 -0.032416 9.273766 0.985127 0.007761 -0.017531 -2.643149 17.280556 -0.214637 33.810875 65.960365 -12.147761 -0.974493 66.050011 -1.506446 -9.106927 11.590104 -80.025383 0.000002 -0.000001 0.000014 -10.751126 2.174345 -4.339095 -8.857665 4.224287 -5.133170 19.013231 -3.750441 -1.499755 4.279990 0.035763 16.644337 4.366508 0.119458 -0.197694 29.944212 -1.993518 -1.620009 -14.558906 -0.878172 -1.464015 -14.552620 -0.056852 0.594205 27.266731 -2.484464 1.676323 -8.824915 2.097984 9.102676 -9.870666 0.160235 1.392260 13.752092 -16.866138 0.307606 -5.919410 0.523294 9.320644 -8.280594 0.111941 2.369877 5.070106 -5.219872 -51.322166 0.875543 1.231565 70.816154 -14.392493 8.683905 -21.844921 -0.000005 -0.000019 -0.000003 -41.621738 4.522876 -15.635995 -0.252088 -0.770716 36.226658 7.737741 12.722688 1.702255 -0.033433 -8.093521 -13.393384
4.258008 7.078653 -7.426139 174.194092 -17.632481 -172.203278 -9.418159 23.236345 3.068304 -0.596446 -3.496929 -0.647738 25.617773 -13.098051 0.169255 1.876436 -32.457184 -0.729947 9.837383 0.664428 0.586923 71.510674 -67.401840 -150.821045 177.050308 -72.948769 -177.826508 1.795184 10.301165 -31.802631 0.000003 0.000005 0.000001 -0.042295 -0.006039 -0.027842 -0.000011 0.000055 0.000019 -0.252438 0.807541 0.005569 -4.260154 -0.046914 0.003230 -4.252710 -0.048576 0.284223 -0.523601 11.846930 0.290880 1.008658 -1.339235 8.625771 1.132494 0.029448 -0.025072 -0.912059 11.805721 -0.069631 1.175000 -1.012175 8.745996 1.132106 0.023507 -0.044630 -1.260466 11.324862 0.289595 1.731868 -0.058607 9.264916 1.133184 0.009027 -0.020091 -3.070288 17.575426 -0.242762 20.545767 67.186386 -19.525396 -0.736702 61.669102 -1.241432 -14.972916 17.456139 -82.766441 0.000000 -0.000008 0.000000 -10.731683 2.177598 -4.358286 -8.857687 4.224380 -5.133185 18.686909 -3.886023 -1.494437 4.281339 0.036998 16.413948 4.366412 0.119348 -0.197582 29.622158 -2.165329 -1.642193 -14.557880 -0.960248 -1.667772 -14.552732 -0.056959 0.594162 26.959415 -2.642992 1.617102 -8.860455 2.039938 8.870516 -9.870792 0.160131 1.392204 13.752098 -16.866116 0.307591 -5.931267 0.524687 9.324489 -8.292552 0.112415 2.373201 5.174625 -5.251306 -51.209911 0.879500 1.232936 71.000114 -14.560893 8.634232 -22.226946 -0.000000 -0.000002 -0.000001 -41.567028 4.486475 -15.689342 -0.257895 -0.778577 36.655979 7.562747 12.911313 0.122093 -0.112344 -7.540657 -12.774817
